<mxfile host="Electron" agent="Mozilla/5.0 (Windows NT 10.0; Win64; x64) AppleWebKit/537.36 (KHTML, like Gecko) draw.io/24.7.17 Chrome/128.0.6613.36 Electron/32.0.1 Safari/537.36" version="24.7.17">
  <diagram name="第 1 页" id="33T3oQKg2jp4dK40noAK">
    <mxGraphModel dx="1562" dy="909" grid="1" gridSize="10" guides="1" tooltips="1" connect="1" arrows="1" fold="1" page="1" pageScale="1" pageWidth="1169" pageHeight="1654" math="0" shadow="0">
      <root>
        <mxCell id="0" />
        <mxCell id="1" parent="0" />
        <mxCell id="R2j_WGsKVn8EYMGW6Qm4-368" value="" style="rounded=0;whiteSpace=wrap;html=1;fillColor=#cce5ff;strokeColor=#36393d;" parent="1" vertex="1">
          <mxGeometry x="78" y="40" width="80" height="40" as="geometry" />
        </mxCell>
        <mxCell id="R2j_WGsKVn8EYMGW6Qm4-369" value="" style="rounded=0;whiteSpace=wrap;html=1;fillColor=#cce5ff;strokeColor=#36393d;" parent="1" vertex="1">
          <mxGeometry x="198" y="40" width="80" height="40" as="geometry" />
        </mxCell>
        <mxCell id="R2j_WGsKVn8EYMGW6Qm4-370" value="" style="rounded=0;whiteSpace=wrap;html=1;fillColor=#cce5ff;strokeColor=#36393d;" parent="1" vertex="1">
          <mxGeometry x="353" y="40" width="80" height="40" as="geometry" />
        </mxCell>
        <mxCell id="R2j_WGsKVn8EYMGW6Qm4-371" value="" style="rounded=0;whiteSpace=wrap;html=1;fillColor=#cce5ff;strokeColor=#36393d;" parent="1" vertex="1">
          <mxGeometry x="478" y="40" width="80" height="40" as="geometry" />
        </mxCell>
        <mxCell id="R2j_WGsKVn8EYMGW6Qm4-394" value="" style="rounded=0;whiteSpace=wrap;html=1;fillColor=#cce5ff;strokeColor=#36393d;" parent="1" vertex="1">
          <mxGeometry x="638" y="40" width="80" height="40" as="geometry" />
        </mxCell>
        <mxCell id="R2j_WGsKVn8EYMGW6Qm4-395" value="" style="rounded=0;whiteSpace=wrap;html=1;fillColor=#cce5ff;strokeColor=#36393d;" parent="1" vertex="1">
          <mxGeometry x="758" y="40" width="80" height="40" as="geometry" />
        </mxCell>
        <mxCell id="R2j_WGsKVn8EYMGW6Qm4-396" value="" style="rounded=0;whiteSpace=wrap;html=1;fillColor=#cce5ff;strokeColor=#36393d;" parent="1" vertex="1">
          <mxGeometry x="913" y="40" width="80" height="40" as="geometry" />
        </mxCell>
        <mxCell id="R2j_WGsKVn8EYMGW6Qm4-397" value="" style="rounded=0;whiteSpace=wrap;html=1;fillColor=#cce5ff;strokeColor=#36393d;" parent="1" vertex="1">
          <mxGeometry x="1038" y="40" width="80" height="40" as="geometry" />
        </mxCell>
        <mxCell id="R2j_WGsKVn8EYMGW6Qm4-398" style="edgeStyle=orthogonalEdgeStyle;rounded=0;orthogonalLoop=1;jettySize=auto;html=1;" parent="1" edge="1">
          <mxGeometry relative="1" as="geometry">
            <mxPoint x="118" y="110" as="targetPoint" />
            <mxPoint x="118" y="80" as="sourcePoint" />
          </mxGeometry>
        </mxCell>
        <mxCell id="R2j_WGsKVn8EYMGW6Qm4-399" style="edgeStyle=orthogonalEdgeStyle;rounded=0;orthogonalLoop=1;jettySize=auto;html=1;dashed=1;strokeColor=default;align=center;verticalAlign=middle;fontFamily=Times New Roman;fontSize=18;fontColor=default;labelBackgroundColor=default;endArrow=none;endFill=0;" parent="1" edge="1">
          <mxGeometry relative="1" as="geometry">
            <mxPoint x="53" y="369.9999999999998" as="targetPoint" />
            <mxPoint x="78" y="60" as="sourcePoint" />
          </mxGeometry>
        </mxCell>
        <mxCell id="R2j_WGsKVn8EYMGW6Qm4-400" style="rounded=0;orthogonalLoop=1;jettySize=auto;html=1;exitX=0;exitY=1;exitDx=0;exitDy=0;fontFamily=Times New Roman;fontSize=18;fontColor=default;dashed=1;strokeColor=default;align=center;verticalAlign=middle;labelBackgroundColor=default;endArrow=none;endFill=0;" parent="1" edge="1">
          <mxGeometry relative="1" as="geometry">
            <mxPoint x="398" y="370" as="targetPoint" />
            <mxPoint x="398" y="330" as="sourcePoint" />
          </mxGeometry>
        </mxCell>
        <mxCell id="R2j_WGsKVn8EYMGW6Qm4-401" style="rounded=0;orthogonalLoop=1;jettySize=auto;html=1;exitX=0;exitY=1;exitDx=0;exitDy=0;fontFamily=Times New Roman;fontSize=18;fontColor=default;dashed=1;strokeColor=default;align=center;verticalAlign=middle;labelBackgroundColor=default;endArrow=none;endFill=0;" parent="1" edge="1">
          <mxGeometry relative="1" as="geometry">
            <mxPoint x="518" y="370" as="targetPoint" />
            <mxPoint x="518" y="330" as="sourcePoint" />
          </mxGeometry>
        </mxCell>
        <mxCell id="R2j_WGsKVn8EYMGW6Qm4-402" style="rounded=0;orthogonalLoop=1;jettySize=auto;html=1;exitX=1;exitY=0;exitDx=0;exitDy=0;fontFamily=Times New Roman;fontSize=18;fontColor=default;endArrow=none;endFill=0;dashed=1;" parent="1" edge="1">
          <mxGeometry relative="1" as="geometry">
            <mxPoint x="398" y="370" as="targetPoint" />
            <mxPoint x="118" y="440" as="sourcePoint" />
          </mxGeometry>
        </mxCell>
        <mxCell id="R2j_WGsKVn8EYMGW6Qm4-403" style="rounded=0;orthogonalLoop=1;jettySize=auto;html=1;exitX=0;exitY=0;exitDx=0;exitDy=0;fontFamily=Times New Roman;fontSize=18;fontColor=default;dashed=1;strokeColor=#00FF00;align=center;verticalAlign=middle;labelBackgroundColor=default;endArrow=none;endFill=0;strokeWidth=3;" parent="1" edge="1">
          <mxGeometry relative="1" as="geometry">
            <mxPoint x="1078" y="370" as="targetPoint" />
            <mxPoint x="243" y="440" as="sourcePoint" />
          </mxGeometry>
        </mxCell>
        <mxCell id="R2j_WGsKVn8EYMGW6Qm4-404" style="rounded=0;orthogonalLoop=1;jettySize=auto;html=1;exitX=1;exitY=0;exitDx=0;exitDy=0;fontFamily=Times New Roman;fontSize=18;fontColor=default;dashed=1;strokeColor=default;align=center;verticalAlign=middle;labelBackgroundColor=default;endArrow=none;endFill=0;" parent="1" edge="1">
          <mxGeometry relative="1" as="geometry">
            <mxPoint x="613" y="370" as="targetPoint" />
            <mxPoint x="398" y="440" as="sourcePoint" />
          </mxGeometry>
        </mxCell>
        <mxCell id="R2j_WGsKVn8EYMGW6Qm4-405" style="rounded=0;orthogonalLoop=1;jettySize=auto;html=1;exitX=0;exitY=0;exitDx=0;exitDy=0;fontFamily=Times New Roman;fontSize=18;fontColor=default;dashed=1;strokeColor=default;align=center;verticalAlign=middle;labelBackgroundColor=default;endArrow=none;endFill=0;" parent="1" edge="1">
          <mxGeometry relative="1" as="geometry">
            <mxPoint x="298" y="370" as="targetPoint" />
            <mxPoint x="518" y="440" as="sourcePoint" />
          </mxGeometry>
        </mxCell>
        <mxCell id="R2j_WGsKVn8EYMGW6Qm4-406" style="rounded=0;orthogonalLoop=1;jettySize=auto;html=1;exitX=1;exitY=0;exitDx=0;exitDy=0;fontFamily=Times New Roman;fontSize=18;fontColor=default;dashed=1;strokeColor=default;align=center;verticalAlign=middle;labelBackgroundColor=default;endArrow=none;endFill=0;" parent="1" edge="1">
          <mxGeometry relative="1" as="geometry">
            <mxPoint x="958" y="370" as="targetPoint" />
            <mxPoint x="678" y="440" as="sourcePoint" />
          </mxGeometry>
        </mxCell>
        <mxCell id="R2j_WGsKVn8EYMGW6Qm4-407" style="rounded=0;orthogonalLoop=1;jettySize=auto;html=1;exitX=0;exitY=0;exitDx=0;exitDy=0;fontFamily=Times New Roman;fontSize=18;fontColor=default;dashed=1;strokeColor=default;align=center;verticalAlign=middle;labelBackgroundColor=default;endArrow=none;endFill=0;" parent="1" edge="1">
          <mxGeometry relative="1" as="geometry">
            <mxPoint x="518" y="370" as="targetPoint" />
            <mxPoint x="798" y="440" as="sourcePoint" />
          </mxGeometry>
        </mxCell>
        <mxCell id="R2j_WGsKVn8EYMGW6Qm4-408" style="rounded=0;orthogonalLoop=1;jettySize=auto;html=1;exitX=1;exitY=0;exitDx=0;exitDy=0;fontFamily=Times New Roman;fontSize=18;fontColor=default;dashed=1;strokeColor=default;align=center;verticalAlign=middle;labelBackgroundColor=default;endArrow=none;endFill=0;" parent="1" edge="1">
          <mxGeometry relative="1" as="geometry">
            <mxPoint x="58" y="370" as="targetPoint" />
            <mxPoint x="958" y="440" as="sourcePoint" />
          </mxGeometry>
        </mxCell>
        <mxCell id="R2j_WGsKVn8EYMGW6Qm4-409" style="rounded=0;orthogonalLoop=1;jettySize=auto;html=1;exitX=1;exitY=0;exitDx=0;exitDy=0;fontFamily=Times New Roman;fontSize=18;fontColor=default;dashed=1;strokeColor=default;align=center;verticalAlign=middle;labelBackgroundColor=default;endArrow=none;endFill=0;" parent="1" edge="1">
          <mxGeometry relative="1" as="geometry">
            <mxPoint x="858" y="370" as="targetPoint" />
            <mxPoint x="1078" y="440" as="sourcePoint" />
          </mxGeometry>
        </mxCell>
        <mxCell id="R2j_WGsKVn8EYMGW6Qm4-410" style="edgeStyle=orthogonalEdgeStyle;rounded=0;orthogonalLoop=1;jettySize=auto;html=1;" parent="1" edge="1">
          <mxGeometry relative="1" as="geometry">
            <mxPoint x="238" y="110" as="targetPoint" />
            <mxPoint x="238" y="80" as="sourcePoint" />
          </mxGeometry>
        </mxCell>
        <mxCell id="R2j_WGsKVn8EYMGW6Qm4-411" style="edgeStyle=orthogonalEdgeStyle;rounded=0;orthogonalLoop=1;jettySize=auto;html=1;dashed=1;strokeColor=default;align=center;verticalAlign=middle;fontFamily=Times New Roman;fontSize=18;fontColor=default;labelBackgroundColor=default;endArrow=none;endFill=0;" parent="1" edge="1">
          <mxGeometry relative="1" as="geometry">
            <mxPoint x="298" y="369.9999999999998" as="targetPoint" />
            <mxPoint x="278" y="60" as="sourcePoint" />
          </mxGeometry>
        </mxCell>
        <mxCell id="R2j_WGsKVn8EYMGW6Qm4-412" style="edgeStyle=orthogonalEdgeStyle;rounded=0;orthogonalLoop=1;jettySize=auto;html=1;entryX=0.5;entryY=0;entryDx=0;entryDy=0;" parent="1" target="R2j_WGsKVn8EYMGW6Qm4-420" edge="1">
          <mxGeometry relative="1" as="geometry">
            <mxPoint x="393" y="260" as="targetPoint" />
            <mxPoint x="393" y="80" as="sourcePoint" />
          </mxGeometry>
        </mxCell>
        <mxCell id="R2j_WGsKVn8EYMGW6Qm4-413" style="edgeStyle=orthogonalEdgeStyle;rounded=0;orthogonalLoop=1;jettySize=auto;html=1;entryX=0.5;entryY=0;entryDx=0;entryDy=0;" parent="1" target="R2j_WGsKVn8EYMGW6Qm4-425" edge="1">
          <mxGeometry relative="1" as="geometry">
            <mxPoint x="518" y="80" as="sourcePoint" />
          </mxGeometry>
        </mxCell>
        <mxCell id="R2j_WGsKVn8EYMGW6Qm4-414" value="&lt;font face=&quot;Lucida Console&quot; style=&quot;font-size: 32px;&quot;&gt;F&lt;/font&gt;" style="rounded=1;whiteSpace=wrap;html=1;" parent="1" vertex="1">
          <mxGeometry x="78" y="110" width="200" height="70" as="geometry" />
        </mxCell>
        <mxCell id="R2j_WGsKVn8EYMGW6Qm4-415" style="edgeStyle=orthogonalEdgeStyle;rounded=0;orthogonalLoop=1;jettySize=auto;html=1;startArrow=classic;startFill=1;endArrow=none;endFill=0;" parent="1" source="R2j_WGsKVn8EYMGW6Qm4-417" edge="1">
          <mxGeometry relative="1" as="geometry">
            <mxPoint x="118" y="180" as="targetPoint" />
          </mxGeometry>
        </mxCell>
        <mxCell id="R2j_WGsKVn8EYMGW6Qm4-416" style="edgeStyle=orthogonalEdgeStyle;rounded=0;orthogonalLoop=1;jettySize=auto;html=1;entryX=0;entryY=0.5;entryDx=0;entryDy=0;" parent="1" target="R2j_WGsKVn8EYMGW6Qm4-420" edge="1">
          <mxGeometry relative="1" as="geometry">
            <mxPoint x="118" y="250" as="sourcePoint" />
            <mxPoint x="313" y="310" as="targetPoint" />
            <Array as="points">
              <mxPoint x="118" y="310" />
            </Array>
          </mxGeometry>
        </mxCell>
        <mxCell id="R2j_WGsKVn8EYMGW6Qm4-417" value="" style="rounded=0;whiteSpace=wrap;html=1;fillColor=#cce5ff;strokeColor=#36393d;" parent="1" vertex="1">
          <mxGeometry x="78" y="210" width="80" height="40" as="geometry" />
        </mxCell>
        <mxCell id="R2j_WGsKVn8EYMGW6Qm4-418" style="edgeStyle=orthogonalEdgeStyle;rounded=0;orthogonalLoop=1;jettySize=auto;html=1;" parent="1" source="R2j_WGsKVn8EYMGW6Qm4-419" edge="1">
          <mxGeometry relative="1" as="geometry">
            <mxPoint x="518" y="230" as="targetPoint" />
          </mxGeometry>
        </mxCell>
        <mxCell id="R2j_WGsKVn8EYMGW6Qm4-419" value="" style="rounded=0;whiteSpace=wrap;html=1;fillColor=#cce5ff;strokeColor=#36393d;" parent="1" vertex="1">
          <mxGeometry x="198" y="210" width="80" height="40" as="geometry" />
        </mxCell>
        <mxCell id="R2j_WGsKVn8EYMGW6Qm4-420" value="" style="rounded=0;whiteSpace=wrap;html=1;fillColor=#cce5ff;strokeColor=#36393d;" parent="1" vertex="1">
          <mxGeometry x="353" y="290" width="80" height="40" as="geometry" />
        </mxCell>
        <mxCell id="R2j_WGsKVn8EYMGW6Qm4-421" style="edgeStyle=orthogonalEdgeStyle;rounded=0;orthogonalLoop=1;jettySize=auto;html=1;" parent="1" source="R2j_WGsKVn8EYMGW6Qm4-422" edge="1">
          <mxGeometry relative="1" as="geometry">
            <mxPoint x="393" y="145" as="targetPoint" />
          </mxGeometry>
        </mxCell>
        <mxCell id="R2j_WGsKVn8EYMGW6Qm4-422" value="&lt;font style=&quot;font-size: 16px;&quot;&gt;&amp;nbsp;k&lt;sub&gt;6&lt;/sub&gt;[0-7]&lt;/font&gt;" style="text;html=1;align=center;verticalAlign=middle;whiteSpace=wrap;rounded=0;fillColor=#cce5ff;strokeColor=#36393d;" parent="1" vertex="1">
          <mxGeometry x="313" y="130" width="60" height="30" as="geometry" />
        </mxCell>
        <mxCell id="R2j_WGsKVn8EYMGW6Qm4-423" style="edgeStyle=orthogonalEdgeStyle;rounded=0;orthogonalLoop=1;jettySize=auto;html=1;" parent="1" source="R2j_WGsKVn8EYMGW6Qm4-424" edge="1">
          <mxGeometry relative="1" as="geometry">
            <mxPoint x="518" y="145" as="targetPoint" />
          </mxGeometry>
        </mxCell>
        <mxCell id="R2j_WGsKVn8EYMGW6Qm4-424" value="&lt;font style=&quot;font-size: 16px;&quot;&gt;&amp;nbsp;k&lt;sub&gt;6&lt;/sub&gt;[8-15]&lt;/font&gt;" style="text;html=1;align=center;verticalAlign=middle;whiteSpace=wrap;rounded=0;fillColor=#cce5ff;strokeColor=#36393d;" parent="1" vertex="1">
          <mxGeometry x="423" y="130" width="75" height="30" as="geometry" />
        </mxCell>
        <mxCell id="R2j_WGsKVn8EYMGW6Qm4-425" value="" style="rounded=0;whiteSpace=wrap;html=1;fillColor=#cce5ff;strokeColor=#36393d;" parent="1" vertex="1">
          <mxGeometry x="478" y="290" width="80" height="40" as="geometry" />
        </mxCell>
        <mxCell id="R2j_WGsKVn8EYMGW6Qm4-426" value="" style="rounded=0;whiteSpace=wrap;html=1;fillColor=#cce5ff;strokeColor=#36393d;" parent="1" vertex="1">
          <mxGeometry x="78" y="440" width="80" height="40" as="geometry" />
        </mxCell>
        <mxCell id="R2j_WGsKVn8EYMGW6Qm4-427" value="" style="rounded=0;whiteSpace=wrap;html=1;" parent="1" vertex="1">
          <mxGeometry x="198" y="440" width="80" height="40" as="geometry" />
        </mxCell>
        <mxCell id="R2j_WGsKVn8EYMGW6Qm4-428" value="" style="rounded=0;whiteSpace=wrap;html=1;fillColor=#cce5ff;strokeColor=#36393d;" parent="1" vertex="1">
          <mxGeometry x="353" y="440" width="80" height="40" as="geometry" />
        </mxCell>
        <mxCell id="R2j_WGsKVn8EYMGW6Qm4-429" value="" style="rounded=0;whiteSpace=wrap;html=1;fillColor=#cce5ff;strokeColor=#36393d;" parent="1" vertex="1">
          <mxGeometry x="478" y="440" width="80" height="40" as="geometry" />
        </mxCell>
        <mxCell id="R2j_WGsKVn8EYMGW6Qm4-430" style="edgeStyle=orthogonalEdgeStyle;rounded=0;orthogonalLoop=1;jettySize=auto;html=1;startArrow=classic;startFill=1;endArrow=none;endFill=0;" parent="1" edge="1">
          <mxGeometry relative="1" as="geometry">
            <mxPoint x="237.58" y="180" as="targetPoint" />
            <mxPoint x="237.58" y="210" as="sourcePoint" />
          </mxGeometry>
        </mxCell>
        <mxCell id="R2j_WGsKVn8EYMGW6Qm4-431" style="edgeStyle=orthogonalEdgeStyle;rounded=0;orthogonalLoop=1;jettySize=auto;html=1;" parent="1" edge="1">
          <mxGeometry relative="1" as="geometry">
            <mxPoint x="678" y="110" as="targetPoint" />
            <mxPoint x="678" y="80" as="sourcePoint" />
          </mxGeometry>
        </mxCell>
        <mxCell id="R2j_WGsKVn8EYMGW6Qm4-432" style="edgeStyle=orthogonalEdgeStyle;rounded=0;orthogonalLoop=1;jettySize=auto;html=1;dashed=1;strokeColor=default;align=center;verticalAlign=middle;fontFamily=Times New Roman;fontSize=18;fontColor=default;labelBackgroundColor=default;endArrow=none;endFill=0;" parent="1" edge="1">
          <mxGeometry relative="1" as="geometry">
            <mxPoint x="613" y="369.9999999999998" as="targetPoint" />
            <mxPoint x="638" y="60" as="sourcePoint" />
          </mxGeometry>
        </mxCell>
        <mxCell id="R2j_WGsKVn8EYMGW6Qm4-433" style="rounded=0;orthogonalLoop=1;jettySize=auto;html=1;exitX=0;exitY=1;exitDx=0;exitDy=0;fontFamily=Times New Roman;fontSize=18;fontColor=default;dashed=1;strokeColor=default;align=center;verticalAlign=middle;labelBackgroundColor=default;endArrow=none;endFill=0;" parent="1" edge="1">
          <mxGeometry relative="1" as="geometry">
            <mxPoint x="958" y="370" as="targetPoint" />
            <mxPoint x="958" y="330" as="sourcePoint" />
          </mxGeometry>
        </mxCell>
        <mxCell id="R2j_WGsKVn8EYMGW6Qm4-434" style="rounded=0;orthogonalLoop=1;jettySize=auto;html=1;exitX=0;exitY=1;exitDx=0;exitDy=0;fontFamily=Times New Roman;fontSize=18;fontColor=default;dashed=1;strokeColor=#00FF00;align=center;verticalAlign=middle;labelBackgroundColor=default;endArrow=none;endFill=0;strokeWidth=3;" parent="1" edge="1">
          <mxGeometry relative="1" as="geometry">
            <mxPoint x="1078" y="370" as="targetPoint" />
            <mxPoint x="1078" y="330" as="sourcePoint" />
          </mxGeometry>
        </mxCell>
        <mxCell id="R2j_WGsKVn8EYMGW6Qm4-435" style="edgeStyle=orthogonalEdgeStyle;rounded=0;orthogonalLoop=1;jettySize=auto;html=1;" parent="1" edge="1">
          <mxGeometry relative="1" as="geometry">
            <mxPoint x="798" y="110" as="targetPoint" />
            <mxPoint x="798" y="80" as="sourcePoint" />
          </mxGeometry>
        </mxCell>
        <mxCell id="R2j_WGsKVn8EYMGW6Qm4-436" style="edgeStyle=orthogonalEdgeStyle;rounded=0;orthogonalLoop=1;jettySize=auto;html=1;dashed=1;strokeColor=default;align=center;verticalAlign=middle;fontFamily=Times New Roman;fontSize=18;fontColor=default;labelBackgroundColor=default;endArrow=none;endFill=0;" parent="1" edge="1">
          <mxGeometry relative="1" as="geometry">
            <mxPoint x="858" y="369.9999999999998" as="targetPoint" />
            <mxPoint x="838" y="60" as="sourcePoint" />
          </mxGeometry>
        </mxCell>
        <mxCell id="R2j_WGsKVn8EYMGW6Qm4-437" style="edgeStyle=orthogonalEdgeStyle;rounded=0;orthogonalLoop=1;jettySize=auto;html=1;entryX=0.5;entryY=0;entryDx=0;entryDy=0;strokeColor=#FF3333;strokeWidth=3;" parent="1" target="R2j_WGsKVn8EYMGW6Qm4-445" edge="1">
          <mxGeometry relative="1" as="geometry">
            <mxPoint x="953" y="260" as="targetPoint" />
            <mxPoint x="953" y="80" as="sourcePoint" />
          </mxGeometry>
        </mxCell>
        <mxCell id="R2j_WGsKVn8EYMGW6Qm4-438" style="edgeStyle=orthogonalEdgeStyle;rounded=0;orthogonalLoop=1;jettySize=auto;html=1;entryX=0.5;entryY=0;entryDx=0;entryDy=0;strokeColor=#00FF00;strokeWidth=3;" parent="1" target="R2j_WGsKVn8EYMGW6Qm4-450" edge="1">
          <mxGeometry relative="1" as="geometry">
            <mxPoint x="1078" y="80" as="sourcePoint" />
          </mxGeometry>
        </mxCell>
        <mxCell id="R2j_WGsKVn8EYMGW6Qm4-439" value="&lt;font face=&quot;Lucida Console&quot; style=&quot;font-size: 32px;&quot;&gt;F&lt;/font&gt;" style="rounded=1;whiteSpace=wrap;html=1;" parent="1" vertex="1">
          <mxGeometry x="638" y="110" width="200" height="70" as="geometry" />
        </mxCell>
        <mxCell id="R2j_WGsKVn8EYMGW6Qm4-440" style="edgeStyle=orthogonalEdgeStyle;rounded=0;orthogonalLoop=1;jettySize=auto;html=1;startArrow=classic;startFill=1;endArrow=none;endFill=0;" parent="1" source="R2j_WGsKVn8EYMGW6Qm4-442" edge="1">
          <mxGeometry relative="1" as="geometry">
            <mxPoint x="678" y="180" as="targetPoint" />
          </mxGeometry>
        </mxCell>
        <mxCell id="R2j_WGsKVn8EYMGW6Qm4-441" style="edgeStyle=orthogonalEdgeStyle;rounded=0;orthogonalLoop=1;jettySize=auto;html=1;entryX=0;entryY=0.5;entryDx=0;entryDy=0;" parent="1" target="R2j_WGsKVn8EYMGW6Qm4-445" edge="1">
          <mxGeometry relative="1" as="geometry">
            <mxPoint x="678" y="250" as="sourcePoint" />
            <mxPoint x="873" y="310" as="targetPoint" />
            <Array as="points">
              <mxPoint x="678" y="310" />
            </Array>
          </mxGeometry>
        </mxCell>
        <mxCell id="R2j_WGsKVn8EYMGW6Qm4-442" value="" style="rounded=0;whiteSpace=wrap;html=1;fillColor=#cce5ff;strokeColor=#36393d;" parent="1" vertex="1">
          <mxGeometry x="638" y="210" width="80" height="40" as="geometry" />
        </mxCell>
        <mxCell id="R2j_WGsKVn8EYMGW6Qm4-443" style="edgeStyle=orthogonalEdgeStyle;rounded=0;orthogonalLoop=1;jettySize=auto;html=1;" parent="1" source="R2j_WGsKVn8EYMGW6Qm4-444" edge="1">
          <mxGeometry relative="1" as="geometry">
            <mxPoint x="1078" y="230" as="targetPoint" />
          </mxGeometry>
        </mxCell>
        <mxCell id="R2j_WGsKVn8EYMGW6Qm4-444" value="" style="rounded=0;whiteSpace=wrap;html=1;fillColor=#cce5ff;strokeColor=#36393d;" parent="1" vertex="1">
          <mxGeometry x="758" y="210" width="80" height="40" as="geometry" />
        </mxCell>
        <mxCell id="R2j_WGsKVn8EYMGW6Qm4-445" value="" style="rounded=0;whiteSpace=wrap;html=1;fillColor=#ffff88;strokeColor=#36393d;" parent="1" vertex="1">
          <mxGeometry x="913" y="290" width="80" height="40" as="geometry" />
        </mxCell>
        <mxCell id="R2j_WGsKVn8EYMGW6Qm4-446" style="edgeStyle=orthogonalEdgeStyle;rounded=0;orthogonalLoop=1;jettySize=auto;html=1;" parent="1" source="R2j_WGsKVn8EYMGW6Qm4-447" edge="1">
          <mxGeometry relative="1" as="geometry">
            <mxPoint x="953" y="145" as="targetPoint" />
          </mxGeometry>
        </mxCell>
        <mxCell id="R2j_WGsKVn8EYMGW6Qm4-447" value="&lt;font style=&quot;font-size: 16px;&quot;&gt;&amp;nbsp;k&lt;sub&gt;1&lt;/sub&gt;[0-7]&lt;/font&gt;" style="text;html=1;align=center;verticalAlign=middle;whiteSpace=wrap;rounded=0;fillColor=#ffff88;strokeColor=#36393d;" parent="1" vertex="1">
          <mxGeometry x="873" y="130" width="60" height="30" as="geometry" />
        </mxCell>
        <mxCell id="R2j_WGsKVn8EYMGW6Qm4-448" style="edgeStyle=orthogonalEdgeStyle;rounded=0;orthogonalLoop=1;jettySize=auto;html=1;" parent="1" source="R2j_WGsKVn8EYMGW6Qm4-449" edge="1">
          <mxGeometry relative="1" as="geometry">
            <mxPoint x="1078" y="145" as="targetPoint" />
          </mxGeometry>
        </mxCell>
        <mxCell id="R2j_WGsKVn8EYMGW6Qm4-449" value="&lt;font style=&quot;font-size: 16px;&quot;&gt;&amp;nbsp;k&lt;sub&gt;1&lt;/sub&gt;[8-15]&lt;/font&gt;" style="text;html=1;align=center;verticalAlign=middle;whiteSpace=wrap;rounded=0;fillColor=#ffff88;strokeColor=#36393d;" parent="1" vertex="1">
          <mxGeometry x="983" y="130" width="75" height="30" as="geometry" />
        </mxCell>
        <mxCell id="R2j_WGsKVn8EYMGW6Qm4-450" value="" style="rounded=0;whiteSpace=wrap;html=1;" parent="1" vertex="1">
          <mxGeometry x="1038" y="290" width="80" height="40" as="geometry" />
        </mxCell>
        <mxCell id="R2j_WGsKVn8EYMGW6Qm4-451" style="edgeStyle=orthogonalEdgeStyle;rounded=0;orthogonalLoop=1;jettySize=auto;html=1;startArrow=classic;startFill=1;endArrow=none;endFill=0;" parent="1" edge="1">
          <mxGeometry relative="1" as="geometry">
            <mxPoint x="797.58" y="180" as="targetPoint" />
            <mxPoint x="797.58" y="210" as="sourcePoint" />
          </mxGeometry>
        </mxCell>
        <mxCell id="R2j_WGsKVn8EYMGW6Qm4-452" value="" style="rounded=0;whiteSpace=wrap;html=1;fillColor=#ffff88;strokeColor=#36393d;" parent="1" vertex="1">
          <mxGeometry x="638" y="440" width="80" height="40" as="geometry" />
        </mxCell>
        <mxCell id="R2j_WGsKVn8EYMGW6Qm4-453" value="" style="rounded=0;whiteSpace=wrap;html=1;shadow=0;gradientDirection=west;fillColor=#cce5ff;strokeColor=#36393d;" parent="1" vertex="1">
          <mxGeometry x="758" y="440" width="80" height="40" as="geometry" />
        </mxCell>
        <mxCell id="R2j_WGsKVn8EYMGW6Qm4-454" value="" style="rounded=0;whiteSpace=wrap;html=1;fillColor=#cce5ff;strokeColor=#36393d;" parent="1" vertex="1">
          <mxGeometry x="913" y="440" width="80" height="40" as="geometry" />
        </mxCell>
        <mxCell id="R2j_WGsKVn8EYMGW6Qm4-455" value="" style="rounded=0;whiteSpace=wrap;html=1;fillColor=#cce5ff;strokeColor=#36393d;" parent="1" vertex="1">
          <mxGeometry x="1038" y="440" width="80" height="40" as="geometry" />
        </mxCell>
        <mxCell id="R2j_WGsKVn8EYMGW6Qm4-456" style="edgeStyle=orthogonalEdgeStyle;rounded=0;orthogonalLoop=1;jettySize=auto;html=1;" parent="1" edge="1">
          <mxGeometry relative="1" as="geometry">
            <mxPoint x="118" y="510" as="targetPoint" />
            <mxPoint x="118" y="480" as="sourcePoint" />
          </mxGeometry>
        </mxCell>
        <mxCell id="R2j_WGsKVn8EYMGW6Qm4-457" style="edgeStyle=orthogonalEdgeStyle;rounded=0;orthogonalLoop=1;jettySize=auto;html=1;dashed=1;strokeColor=#FF3333;align=center;verticalAlign=middle;fontFamily=Times New Roman;fontSize=18;fontColor=default;labelBackgroundColor=default;endArrow=none;endFill=0;strokeWidth=3;" parent="1" edge="1">
          <mxGeometry relative="1" as="geometry">
            <mxPoint x="53" y="769.9999999999998" as="targetPoint" />
            <mxPoint x="78" y="460" as="sourcePoint" />
          </mxGeometry>
        </mxCell>
        <mxCell id="R2j_WGsKVn8EYMGW6Qm4-458" style="rounded=0;orthogonalLoop=1;jettySize=auto;html=1;exitX=0;exitY=1;exitDx=0;exitDy=0;fontFamily=Times New Roman;fontSize=18;fontColor=default;dashed=1;strokeColor=default;align=center;verticalAlign=middle;labelBackgroundColor=default;endArrow=none;endFill=0;" parent="1" edge="1">
          <mxGeometry relative="1" as="geometry">
            <mxPoint x="392.71" y="770" as="targetPoint" />
            <mxPoint x="392.71" y="730" as="sourcePoint" />
          </mxGeometry>
        </mxCell>
        <mxCell id="R2j_WGsKVn8EYMGW6Qm4-459" style="rounded=0;orthogonalLoop=1;jettySize=auto;html=1;exitX=0;exitY=1;exitDx=0;exitDy=0;fontFamily=Times New Roman;fontSize=18;fontColor=default;dashed=1;strokeColor=default;align=center;verticalAlign=middle;labelBackgroundColor=default;endArrow=none;endFill=0;" parent="1" edge="1">
          <mxGeometry relative="1" as="geometry">
            <mxPoint x="518" y="770" as="targetPoint" />
            <mxPoint x="518" y="730" as="sourcePoint" />
          </mxGeometry>
        </mxCell>
        <mxCell id="R2j_WGsKVn8EYMGW6Qm4-468" style="edgeStyle=orthogonalEdgeStyle;rounded=0;orthogonalLoop=1;jettySize=auto;html=1;" parent="1" edge="1">
          <mxGeometry relative="1" as="geometry">
            <mxPoint x="238" y="510" as="targetPoint" />
            <mxPoint x="238" y="480" as="sourcePoint" />
          </mxGeometry>
        </mxCell>
        <mxCell id="R2j_WGsKVn8EYMGW6Qm4-469" style="edgeStyle=orthogonalEdgeStyle;rounded=0;orthogonalLoop=1;jettySize=auto;html=1;dashed=1;strokeColor=#00FF00;align=center;verticalAlign=middle;fontFamily=Times New Roman;fontSize=18;fontColor=default;labelBackgroundColor=default;endArrow=none;endFill=0;strokeWidth=3;" parent="1" edge="1">
          <mxGeometry relative="1" as="geometry">
            <mxPoint x="298" y="769.9999999999998" as="targetPoint" />
            <mxPoint x="278" y="460" as="sourcePoint" />
          </mxGeometry>
        </mxCell>
        <mxCell id="R2j_WGsKVn8EYMGW6Qm4-470" style="edgeStyle=orthogonalEdgeStyle;rounded=0;orthogonalLoop=1;jettySize=auto;html=1;entryX=0.5;entryY=0;entryDx=0;entryDy=0;strokeWidth=3;strokeColor=#FF3333;" parent="1" target="R2j_WGsKVn8EYMGW6Qm4-478" edge="1">
          <mxGeometry relative="1" as="geometry">
            <mxPoint x="393" y="660" as="targetPoint" />
            <mxPoint x="393" y="480" as="sourcePoint" />
          </mxGeometry>
        </mxCell>
        <mxCell id="R2j_WGsKVn8EYMGW6Qm4-471" style="edgeStyle=orthogonalEdgeStyle;rounded=0;orthogonalLoop=1;jettySize=auto;html=1;entryX=0.5;entryY=0;entryDx=0;entryDy=0;strokeWidth=3;strokeColor=#FF3333;" parent="1" target="R2j_WGsKVn8EYMGW6Qm4-483" edge="1">
          <mxGeometry relative="1" as="geometry">
            <mxPoint x="518" y="480" as="sourcePoint" />
          </mxGeometry>
        </mxCell>
        <mxCell id="R2j_WGsKVn8EYMGW6Qm4-472" value="&lt;font face=&quot;Lucida Console&quot; style=&quot;font-size: 32px;&quot;&gt;F&lt;/font&gt;" style="rounded=1;whiteSpace=wrap;html=1;" parent="1" vertex="1">
          <mxGeometry x="78" y="510" width="200" height="70" as="geometry" />
        </mxCell>
        <mxCell id="R2j_WGsKVn8EYMGW6Qm4-473" style="edgeStyle=orthogonalEdgeStyle;rounded=0;orthogonalLoop=1;jettySize=auto;html=1;startArrow=classic;startFill=1;endArrow=none;endFill=0;" parent="1" source="R2j_WGsKVn8EYMGW6Qm4-475" edge="1">
          <mxGeometry relative="1" as="geometry">
            <mxPoint x="118" y="580" as="targetPoint" />
          </mxGeometry>
        </mxCell>
        <mxCell id="R2j_WGsKVn8EYMGW6Qm4-474" style="edgeStyle=orthogonalEdgeStyle;rounded=0;orthogonalLoop=1;jettySize=auto;html=1;entryX=0;entryY=0.5;entryDx=0;entryDy=0;" parent="1" target="R2j_WGsKVn8EYMGW6Qm4-478" edge="1">
          <mxGeometry relative="1" as="geometry">
            <mxPoint x="118" y="650" as="sourcePoint" />
            <mxPoint x="313" y="710" as="targetPoint" />
            <Array as="points">
              <mxPoint x="118" y="710" />
            </Array>
          </mxGeometry>
        </mxCell>
        <mxCell id="R2j_WGsKVn8EYMGW6Qm4-475" value="" style="rounded=0;whiteSpace=wrap;html=1;" parent="1" vertex="1">
          <mxGeometry x="78" y="610" width="80" height="40" as="geometry" />
        </mxCell>
        <mxCell id="R2j_WGsKVn8EYMGW6Qm4-476" style="edgeStyle=orthogonalEdgeStyle;rounded=0;orthogonalLoop=1;jettySize=auto;html=1;" parent="1" source="R2j_WGsKVn8EYMGW6Qm4-477" edge="1">
          <mxGeometry relative="1" as="geometry">
            <mxPoint x="518" y="630" as="targetPoint" />
          </mxGeometry>
        </mxCell>
        <mxCell id="R2j_WGsKVn8EYMGW6Qm4-477" value="" style="rounded=0;whiteSpace=wrap;html=1;" parent="1" vertex="1">
          <mxGeometry x="198" y="610" width="80" height="40" as="geometry" />
        </mxCell>
        <mxCell id="R2j_WGsKVn8EYMGW6Qm4-478" value="" style="rounded=0;whiteSpace=wrap;html=1;fillColor=#ffff88;strokeColor=#36393d;" parent="1" vertex="1">
          <mxGeometry x="353" y="690" width="80" height="40" as="geometry" />
        </mxCell>
        <mxCell id="R2j_WGsKVn8EYMGW6Qm4-479" style="edgeStyle=orthogonalEdgeStyle;rounded=0;orthogonalLoop=1;jettySize=auto;html=1;" parent="1" source="R2j_WGsKVn8EYMGW6Qm4-480" edge="1">
          <mxGeometry relative="1" as="geometry">
            <mxPoint x="393" y="545" as="targetPoint" />
          </mxGeometry>
        </mxCell>
        <mxCell id="R2j_WGsKVn8EYMGW6Qm4-480" value="&lt;font style=&quot;font-size: 16px;&quot;&gt;&amp;nbsp;k&lt;sub&gt;4&lt;/sub&gt;[0-7]&lt;/font&gt;" style="text;html=1;align=center;verticalAlign=middle;whiteSpace=wrap;rounded=0;fillColor=#cdeb8b;strokeColor=#36393d;" parent="1" vertex="1">
          <mxGeometry x="313" y="530" width="60" height="30" as="geometry" />
        </mxCell>
        <mxCell id="R2j_WGsKVn8EYMGW6Qm4-481" style="edgeStyle=orthogonalEdgeStyle;rounded=0;orthogonalLoop=1;jettySize=auto;html=1;" parent="1" source="R2j_WGsKVn8EYMGW6Qm4-482" edge="1">
          <mxGeometry relative="1" as="geometry">
            <mxPoint x="518" y="545" as="targetPoint" />
          </mxGeometry>
        </mxCell>
        <mxCell id="R2j_WGsKVn8EYMGW6Qm4-482" value="&lt;font style=&quot;font-size: 16px;&quot;&gt;&amp;nbsp;k&lt;sub&gt;4&lt;/sub&gt;[8-15]&lt;/font&gt;" style="text;html=1;align=center;verticalAlign=middle;whiteSpace=wrap;rounded=0;fillColor=#cdeb8b;strokeColor=#36393d;" parent="1" vertex="1">
          <mxGeometry x="423" y="530" width="75" height="30" as="geometry" />
        </mxCell>
        <mxCell id="R2j_WGsKVn8EYMGW6Qm4-483" value="" style="rounded=0;whiteSpace=wrap;html=1;fillColor=#ffff88;strokeColor=#36393d;" parent="1" vertex="1">
          <mxGeometry x="478" y="690" width="80" height="40" as="geometry" />
        </mxCell>
        <mxCell id="ICldC9p7jGxHIDFtLcaZ-1" style="shape=connector;rounded=0;orthogonalLoop=1;jettySize=auto;html=1;dashed=1;strokeColor=#FF3333;align=center;verticalAlign=middle;fontFamily=Times New Roman;fontSize=18;fontColor=default;labelBackgroundColor=default;endArrow=none;endFill=0;strokeWidth=3;" parent="1" source="R2j_WGsKVn8EYMGW6Qm4-484" edge="1">
          <mxGeometry relative="1" as="geometry">
            <mxPoint x="53" y="770" as="targetPoint" />
          </mxGeometry>
        </mxCell>
        <mxCell id="R2j_WGsKVn8EYMGW6Qm4-484" value="" style="rounded=0;whiteSpace=wrap;html=1;fillColor=#ffff88;strokeColor=#36393d;" parent="1" vertex="1">
          <mxGeometry x="78" y="840" width="80" height="40" as="geometry" />
        </mxCell>
        <mxCell id="ICldC9p7jGxHIDFtLcaZ-2" style="edgeStyle=none;shape=connector;rounded=0;orthogonalLoop=1;jettySize=auto;html=1;dashed=1;strokeColor=#00FF00;align=center;verticalAlign=middle;fontFamily=Times New Roman;fontSize=18;fontColor=default;labelBackgroundColor=default;endArrow=none;endFill=0;strokeWidth=3;" parent="1" source="R2j_WGsKVn8EYMGW6Qm4-485" edge="1">
          <mxGeometry relative="1" as="geometry">
            <mxPoint x="298" y="770" as="targetPoint" />
          </mxGeometry>
        </mxCell>
        <mxCell id="R2j_WGsKVn8EYMGW6Qm4-485" value="" style="rounded=0;whiteSpace=wrap;html=1;fillColor=#ffff88;strokeColor=#36393d;" parent="1" vertex="1">
          <mxGeometry x="198" y="840" width="80" height="40" as="geometry" />
        </mxCell>
        <mxCell id="ICldC9p7jGxHIDFtLcaZ-3" style="edgeStyle=none;shape=connector;rounded=0;orthogonalLoop=1;jettySize=auto;html=1;dashed=1;strokeColor=default;align=center;verticalAlign=middle;fontFamily=Times New Roman;fontSize=18;fontColor=default;labelBackgroundColor=default;endArrow=none;endFill=0;" parent="1" source="R2j_WGsKVn8EYMGW6Qm4-486" edge="1">
          <mxGeometry relative="1" as="geometry">
            <mxPoint x="393" y="770" as="targetPoint" />
          </mxGeometry>
        </mxCell>
        <mxCell id="R2j_WGsKVn8EYMGW6Qm4-486" value="" style="rounded=0;whiteSpace=wrap;html=1;fillColor=#ffff88;strokeColor=#36393d;" parent="1" vertex="1">
          <mxGeometry x="353" y="840" width="80" height="40" as="geometry" />
        </mxCell>
        <mxCell id="ICldC9p7jGxHIDFtLcaZ-4" style="edgeStyle=none;shape=connector;rounded=0;orthogonalLoop=1;jettySize=auto;html=1;dashed=1;strokeColor=default;align=center;verticalAlign=middle;fontFamily=Times New Roman;fontSize=18;fontColor=default;labelBackgroundColor=default;endArrow=none;endFill=0;" parent="1" source="R2j_WGsKVn8EYMGW6Qm4-487" edge="1">
          <mxGeometry relative="1" as="geometry">
            <mxPoint x="518" y="770" as="targetPoint" />
          </mxGeometry>
        </mxCell>
        <mxCell id="R2j_WGsKVn8EYMGW6Qm4-487" value="" style="rounded=0;whiteSpace=wrap;html=1;fillColor=#ffff88;strokeColor=#36393d;" parent="1" vertex="1">
          <mxGeometry x="478" y="840" width="80" height="40" as="geometry" />
        </mxCell>
        <mxCell id="R2j_WGsKVn8EYMGW6Qm4-488" style="edgeStyle=orthogonalEdgeStyle;rounded=0;orthogonalLoop=1;jettySize=auto;html=1;startArrow=classic;startFill=1;endArrow=none;endFill=0;" parent="1" edge="1">
          <mxGeometry relative="1" as="geometry">
            <mxPoint x="237.58" y="580" as="targetPoint" />
            <mxPoint x="237.58" y="610" as="sourcePoint" />
          </mxGeometry>
        </mxCell>
        <mxCell id="R2j_WGsKVn8EYMGW6Qm4-489" style="edgeStyle=orthogonalEdgeStyle;rounded=0;orthogonalLoop=1;jettySize=auto;html=1;" parent="1" edge="1">
          <mxGeometry relative="1" as="geometry">
            <mxPoint x="678" y="510" as="targetPoint" />
            <mxPoint x="678" y="480" as="sourcePoint" />
          </mxGeometry>
        </mxCell>
        <mxCell id="R2j_WGsKVn8EYMGW6Qm4-490" style="edgeStyle=orthogonalEdgeStyle;rounded=0;orthogonalLoop=1;jettySize=auto;html=1;dashed=1;strokeColor=default;align=center;verticalAlign=middle;fontFamily=Times New Roman;fontSize=18;fontColor=default;labelBackgroundColor=default;endArrow=none;endFill=0;" parent="1" edge="1">
          <mxGeometry relative="1" as="geometry">
            <mxPoint x="613" y="769.9999999999998" as="targetPoint" />
            <mxPoint x="638" y="460" as="sourcePoint" />
          </mxGeometry>
        </mxCell>
        <mxCell id="R2j_WGsKVn8EYMGW6Qm4-491" style="rounded=0;orthogonalLoop=1;jettySize=auto;html=1;exitX=0;exitY=1;exitDx=0;exitDy=0;fontFamily=Times New Roman;fontSize=18;fontColor=default;dashed=1;strokeColor=default;align=center;verticalAlign=middle;labelBackgroundColor=default;endArrow=none;endFill=0;" parent="1" edge="1">
          <mxGeometry relative="1" as="geometry">
            <mxPoint x="952.71" y="770" as="targetPoint" />
            <mxPoint x="952.71" y="730" as="sourcePoint" />
          </mxGeometry>
        </mxCell>
        <mxCell id="R2j_WGsKVn8EYMGW6Qm4-492" style="rounded=0;orthogonalLoop=1;jettySize=auto;html=1;exitX=0;exitY=1;exitDx=0;exitDy=0;fontFamily=Times New Roman;fontSize=18;fontColor=default;dashed=1;strokeColor=default;align=center;verticalAlign=middle;labelBackgroundColor=default;endArrow=none;endFill=0;" parent="1" edge="1">
          <mxGeometry relative="1" as="geometry">
            <mxPoint x="1078" y="770" as="targetPoint" />
            <mxPoint x="1078" y="730" as="sourcePoint" />
          </mxGeometry>
        </mxCell>
        <mxCell id="R2j_WGsKVn8EYMGW6Qm4-493" style="edgeStyle=orthogonalEdgeStyle;rounded=0;orthogonalLoop=1;jettySize=auto;html=1;" parent="1" edge="1">
          <mxGeometry relative="1" as="geometry">
            <mxPoint x="798" y="510" as="targetPoint" />
            <mxPoint x="798" y="480" as="sourcePoint" />
          </mxGeometry>
        </mxCell>
        <mxCell id="R2j_WGsKVn8EYMGW6Qm4-494" style="edgeStyle=orthogonalEdgeStyle;rounded=0;orthogonalLoop=1;jettySize=auto;html=1;dashed=1;strokeColor=#FF3333;align=center;verticalAlign=middle;fontFamily=Times New Roman;fontSize=18;fontColor=default;labelBackgroundColor=default;endArrow=none;endFill=0;strokeWidth=3;" parent="1" edge="1">
          <mxGeometry relative="1" as="geometry">
            <mxPoint x="858" y="769.9999999999998" as="targetPoint" />
            <mxPoint x="838" y="460" as="sourcePoint" />
          </mxGeometry>
        </mxCell>
        <mxCell id="R2j_WGsKVn8EYMGW6Qm4-495" style="edgeStyle=orthogonalEdgeStyle;rounded=0;orthogonalLoop=1;jettySize=auto;html=1;entryX=0.5;entryY=0;entryDx=0;entryDy=0;strokeWidth=3;strokeColor=#FF3333;" parent="1" target="R2j_WGsKVn8EYMGW6Qm4-503" edge="1">
          <mxGeometry relative="1" as="geometry">
            <mxPoint x="953" y="660" as="targetPoint" />
            <mxPoint x="953" y="480" as="sourcePoint" />
          </mxGeometry>
        </mxCell>
        <mxCell id="R2j_WGsKVn8EYMGW6Qm4-496" style="edgeStyle=orthogonalEdgeStyle;rounded=0;orthogonalLoop=1;jettySize=auto;html=1;entryX=0.5;entryY=0;entryDx=0;entryDy=0;strokeWidth=3;strokeColor=#FF3333;" parent="1" target="R2j_WGsKVn8EYMGW6Qm4-508" edge="1">
          <mxGeometry relative="1" as="geometry">
            <mxPoint x="1078" y="480" as="sourcePoint" />
          </mxGeometry>
        </mxCell>
        <mxCell id="R2j_WGsKVn8EYMGW6Qm4-497" value="&lt;font face=&quot;Lucida Console&quot; style=&quot;font-size: 32px;&quot;&gt;F&lt;/font&gt;" style="rounded=1;whiteSpace=wrap;html=1;" parent="1" vertex="1">
          <mxGeometry x="638" y="510" width="200" height="70" as="geometry" />
        </mxCell>
        <mxCell id="R2j_WGsKVn8EYMGW6Qm4-498" style="edgeStyle=orthogonalEdgeStyle;rounded=0;orthogonalLoop=1;jettySize=auto;html=1;startArrow=classic;startFill=1;endArrow=none;endFill=0;" parent="1" source="R2j_WGsKVn8EYMGW6Qm4-500" edge="1">
          <mxGeometry relative="1" as="geometry">
            <mxPoint x="678" y="580" as="targetPoint" />
          </mxGeometry>
        </mxCell>
        <mxCell id="R2j_WGsKVn8EYMGW6Qm4-499" style="edgeStyle=orthogonalEdgeStyle;rounded=0;orthogonalLoop=1;jettySize=auto;html=1;entryX=0;entryY=0.5;entryDx=0;entryDy=0;" parent="1" target="R2j_WGsKVn8EYMGW6Qm4-503" edge="1">
          <mxGeometry relative="1" as="geometry">
            <mxPoint x="678" y="650" as="sourcePoint" />
            <mxPoint x="873" y="710" as="targetPoint" />
            <Array as="points">
              <mxPoint x="678" y="710" />
            </Array>
          </mxGeometry>
        </mxCell>
        <mxCell id="R2j_WGsKVn8EYMGW6Qm4-500" value="" style="rounded=0;whiteSpace=wrap;html=1;" parent="1" vertex="1">
          <mxGeometry x="638" y="610" width="80" height="40" as="geometry" />
        </mxCell>
        <mxCell id="R2j_WGsKVn8EYMGW6Qm4-501" style="edgeStyle=orthogonalEdgeStyle;rounded=0;orthogonalLoop=1;jettySize=auto;html=1;" parent="1" source="R2j_WGsKVn8EYMGW6Qm4-502" edge="1">
          <mxGeometry relative="1" as="geometry">
            <mxPoint x="1078" y="630" as="targetPoint" />
          </mxGeometry>
        </mxCell>
        <mxCell id="R2j_WGsKVn8EYMGW6Qm4-502" value="" style="rounded=0;whiteSpace=wrap;html=1;" parent="1" vertex="1">
          <mxGeometry x="758" y="610" width="80" height="40" as="geometry" />
        </mxCell>
        <mxCell id="R2j_WGsKVn8EYMGW6Qm4-503" value="" style="rounded=0;whiteSpace=wrap;html=1;fillColor=#ffff88;strokeColor=#36393d;" parent="1" vertex="1">
          <mxGeometry x="913" y="690" width="80" height="40" as="geometry" />
        </mxCell>
        <mxCell id="R2j_WGsKVn8EYMGW6Qm4-504" style="edgeStyle=orthogonalEdgeStyle;rounded=0;orthogonalLoop=1;jettySize=auto;html=1;" parent="1" source="R2j_WGsKVn8EYMGW6Qm4-505" edge="1">
          <mxGeometry relative="1" as="geometry">
            <mxPoint x="953" y="545" as="targetPoint" />
          </mxGeometry>
        </mxCell>
        <mxCell id="R2j_WGsKVn8EYMGW6Qm4-505" value="&lt;font style=&quot;font-size: 16px;&quot;&gt;&amp;nbsp;k&lt;sub&gt;3&lt;/sub&gt;[0-7]&lt;/font&gt;" style="text;html=1;align=center;verticalAlign=middle;whiteSpace=wrap;rounded=0;fillColor=#cdeb8b;strokeColor=#36393d;" parent="1" vertex="1">
          <mxGeometry x="873" y="530" width="60" height="30" as="geometry" />
        </mxCell>
        <mxCell id="R2j_WGsKVn8EYMGW6Qm4-506" style="edgeStyle=orthogonalEdgeStyle;rounded=0;orthogonalLoop=1;jettySize=auto;html=1;" parent="1" source="R2j_WGsKVn8EYMGW6Qm4-507" edge="1">
          <mxGeometry relative="1" as="geometry">
            <mxPoint x="1078" y="545" as="targetPoint" />
          </mxGeometry>
        </mxCell>
        <mxCell id="R2j_WGsKVn8EYMGW6Qm4-507" value="&lt;font style=&quot;font-size: 16px;&quot;&gt;&amp;nbsp;k&lt;sub&gt;3&lt;/sub&gt;[8-15]&lt;/font&gt;" style="text;html=1;align=center;verticalAlign=middle;whiteSpace=wrap;rounded=0;fillColor=#cdeb8b;strokeColor=#36393d;" parent="1" vertex="1">
          <mxGeometry x="983" y="530" width="75" height="30" as="geometry" />
        </mxCell>
        <mxCell id="R2j_WGsKVn8EYMGW6Qm4-508" value="" style="rounded=0;whiteSpace=wrap;html=1;fillColor=#ffff88;strokeColor=#36393d;" parent="1" vertex="1">
          <mxGeometry x="1038" y="690" width="80" height="40" as="geometry" />
        </mxCell>
        <mxCell id="R2j_WGsKVn8EYMGW6Qm4-509" style="edgeStyle=orthogonalEdgeStyle;rounded=0;orthogonalLoop=1;jettySize=auto;html=1;startArrow=classic;startFill=1;endArrow=none;endFill=0;" parent="1" edge="1">
          <mxGeometry relative="1" as="geometry">
            <mxPoint x="797.58" y="580" as="targetPoint" />
            <mxPoint x="797.58" y="610" as="sourcePoint" />
          </mxGeometry>
        </mxCell>
        <mxCell id="ICldC9p7jGxHIDFtLcaZ-5" style="edgeStyle=none;shape=connector;rounded=0;orthogonalLoop=1;jettySize=auto;html=1;dashed=1;strokeColor=default;align=center;verticalAlign=middle;fontFamily=Times New Roman;fontSize=18;fontColor=default;labelBackgroundColor=default;endArrow=none;endFill=0;" parent="1" source="R2j_WGsKVn8EYMGW6Qm4-510" edge="1">
          <mxGeometry relative="1" as="geometry">
            <mxPoint x="613" y="770" as="targetPoint" />
          </mxGeometry>
        </mxCell>
        <mxCell id="R2j_WGsKVn8EYMGW6Qm4-510" value="" style="rounded=0;whiteSpace=wrap;html=1;fillColor=#ffff88;strokeColor=#36393d;" parent="1" vertex="1">
          <mxGeometry x="638" y="840" width="80" height="40" as="geometry" />
        </mxCell>
        <mxCell id="ICldC9p7jGxHIDFtLcaZ-6" style="edgeStyle=none;shape=connector;rounded=0;orthogonalLoop=1;jettySize=auto;html=1;dashed=1;strokeColor=#FF3333;align=center;verticalAlign=middle;fontFamily=Times New Roman;fontSize=18;fontColor=default;labelBackgroundColor=default;endArrow=none;endFill=0;strokeWidth=3;" parent="1" source="R2j_WGsKVn8EYMGW6Qm4-511" edge="1">
          <mxGeometry relative="1" as="geometry">
            <mxPoint x="858" y="770" as="targetPoint" />
          </mxGeometry>
        </mxCell>
        <mxCell id="R2j_WGsKVn8EYMGW6Qm4-511" value="" style="rounded=0;whiteSpace=wrap;html=1;fillColor=#ffff88;strokeColor=#36393d;" parent="1" vertex="1">
          <mxGeometry x="758" y="840" width="80" height="40" as="geometry" />
        </mxCell>
        <mxCell id="ICldC9p7jGxHIDFtLcaZ-7" style="edgeStyle=none;shape=connector;rounded=0;orthogonalLoop=1;jettySize=auto;html=1;dashed=1;strokeColor=default;align=center;verticalAlign=middle;fontFamily=Times New Roman;fontSize=18;fontColor=default;labelBackgroundColor=default;endArrow=none;endFill=0;" parent="1" source="R2j_WGsKVn8EYMGW6Qm4-512" edge="1">
          <mxGeometry relative="1" as="geometry">
            <mxPoint x="953" y="770" as="targetPoint" />
          </mxGeometry>
        </mxCell>
        <mxCell id="R2j_WGsKVn8EYMGW6Qm4-512" value="" style="rounded=0;whiteSpace=wrap;html=1;fillColor=#ffff88;strokeColor=#36393d;" parent="1" vertex="1">
          <mxGeometry x="913" y="840" width="80" height="40" as="geometry" />
        </mxCell>
        <mxCell id="ICldC9p7jGxHIDFtLcaZ-8" style="edgeStyle=none;shape=connector;rounded=0;orthogonalLoop=1;jettySize=auto;html=1;dashed=1;strokeColor=default;align=center;verticalAlign=middle;fontFamily=Times New Roman;fontSize=18;fontColor=default;labelBackgroundColor=default;endArrow=none;endFill=0;" parent="1" source="R2j_WGsKVn8EYMGW6Qm4-513" edge="1">
          <mxGeometry relative="1" as="geometry">
            <mxPoint x="1078" y="770" as="targetPoint" />
          </mxGeometry>
        </mxCell>
        <mxCell id="R2j_WGsKVn8EYMGW6Qm4-513" value="" style="rounded=0;whiteSpace=wrap;html=1;fillColor=#ffff88;strokeColor=#36393d;" parent="1" vertex="1">
          <mxGeometry x="1038" y="840" width="80" height="40" as="geometry" />
        </mxCell>
        <mxCell id="ICldC9p7jGxHIDFtLcaZ-11" style="edgeStyle=orthogonalEdgeStyle;shape=connector;rounded=0;orthogonalLoop=1;jettySize=auto;html=1;strokeColor=default;align=center;verticalAlign=middle;fontFamily=Helvetica;fontSize=11;fontColor=default;labelBackgroundColor=default;endArrow=classic;" parent="1" source="ICldC9p7jGxHIDFtLcaZ-9" edge="1">
          <mxGeometry relative="1" as="geometry">
            <mxPoint x="51" y="755" as="targetPoint" />
          </mxGeometry>
        </mxCell>
        <mxCell id="ICldC9p7jGxHIDFtLcaZ-9" value="&lt;font style=&quot;font-size: 16px;&quot;&gt;&amp;nbsp;k&lt;sub&gt;4&lt;/sub&gt;[0-7]&lt;/font&gt;" style="text;html=1;align=center;verticalAlign=middle;whiteSpace=wrap;rounded=0;fillColor=#cdeb8b;strokeColor=#36393d;" parent="1" vertex="1">
          <mxGeometry x="88" y="740" width="60" height="30" as="geometry" />
        </mxCell>
        <mxCell id="ICldC9p7jGxHIDFtLcaZ-13" style="edgeStyle=orthogonalEdgeStyle;shape=connector;rounded=0;orthogonalLoop=1;jettySize=auto;html=1;strokeColor=default;align=center;verticalAlign=middle;fontFamily=Helvetica;fontSize=11;fontColor=default;labelBackgroundColor=default;endArrow=classic;" parent="1" source="ICldC9p7jGxHIDFtLcaZ-12" edge="1">
          <mxGeometry relative="1" as="geometry">
            <mxPoint x="298" y="755" as="targetPoint" />
          </mxGeometry>
        </mxCell>
        <mxCell id="ICldC9p7jGxHIDFtLcaZ-12" value="&lt;font style=&quot;font-size: 16px;&quot;&gt;&amp;nbsp;k&lt;sub&gt;7&lt;/sub&gt;[8-15]&lt;/font&gt;" style="text;html=1;align=center;verticalAlign=middle;whiteSpace=wrap;rounded=0;fillColor=#cce5ff;strokeColor=#36393d;" parent="1" vertex="1">
          <mxGeometry x="198" y="740" width="75" height="30" as="geometry" />
        </mxCell>
        <mxCell id="ICldC9p7jGxHIDFtLcaZ-14" style="edgeStyle=orthogonalEdgeStyle;shape=connector;rounded=0;orthogonalLoop=1;jettySize=auto;html=1;strokeColor=default;align=center;verticalAlign=middle;fontFamily=Helvetica;fontSize=11;fontColor=default;labelBackgroundColor=default;endArrow=classic;" parent="1" source="ICldC9p7jGxHIDFtLcaZ-15" edge="1">
          <mxGeometry relative="1" as="geometry">
            <mxPoint x="613" y="755" as="targetPoint" />
          </mxGeometry>
        </mxCell>
        <mxCell id="ICldC9p7jGxHIDFtLcaZ-15" value="&lt;font style=&quot;font-size: 16px;&quot;&gt;&amp;nbsp;k&lt;sub&gt;7&lt;/sub&gt;[0-7]&lt;/font&gt;" style="text;html=1;align=center;verticalAlign=middle;whiteSpace=wrap;rounded=0;fillColor=#cdeb8b;strokeColor=#36393d;" parent="1" vertex="1">
          <mxGeometry x="650" y="740" width="60" height="30" as="geometry" />
        </mxCell>
        <mxCell id="ICldC9p7jGxHIDFtLcaZ-16" style="edgeStyle=orthogonalEdgeStyle;shape=connector;rounded=0;orthogonalLoop=1;jettySize=auto;html=1;strokeColor=default;align=center;verticalAlign=middle;fontFamily=Helvetica;fontSize=11;fontColor=default;labelBackgroundColor=default;endArrow=classic;" parent="1" source="ICldC9p7jGxHIDFtLcaZ-17" edge="1">
          <mxGeometry relative="1" as="geometry">
            <mxPoint x="858" y="755" as="targetPoint" />
          </mxGeometry>
        </mxCell>
        <mxCell id="ICldC9p7jGxHIDFtLcaZ-17" value="&lt;font style=&quot;font-size: 16px;&quot;&gt;&amp;nbsp;k&lt;sub&gt;4&lt;/sub&gt;[8-15]&lt;/font&gt;" style="text;html=1;align=center;verticalAlign=middle;whiteSpace=wrap;rounded=0;fillColor=#cdeb8b;strokeColor=#36393d;" parent="1" vertex="1">
          <mxGeometry x="760" y="740" width="75" height="30" as="geometry" />
        </mxCell>
      </root>
    </mxGraphModel>
  </diagram>
</mxfile>
